# xmcd
#
# Track frame offsets: 
#        150
#        15705
#        32188
#        46510
#        62449
#        82817
#        98268
#        112014
#        126542
#        141494
#
# Disc length: 2054 seconds
#
# Revision: 0
# Processed by: cddbd v1.5.2PL0 Copyright (c) Steve Scherf et al.
# Submitted via: ExactAudioCopy v0.95a5
#
DISCID=7a08040a
DTITLE=Bruno Mars - Click Ciack Away
DYEAR=2011
DGENRE=Pop
TTITLE0=Click Clack Away 
TTITLE1=Talking to the Moon£¨Acoustic Piano Version£©
TTITLE2=The Lazy Song£¨Single Version£©
TTITLE3=Billionaire Travie McCoy
TTITLE4=Nothin' On You
TTITLE5=Today My Life Begins
TTITLE6=Somewhere In Brooklyn
TTITLE7=Killa On The Run
TTITLE8=Count On Me
TTITLE9=Gold (Prod. By Benny Blanco)
EXTD=
EXTT0=
EXTT1=
EXTT2=
EXTT3=
EXTT4=
EXTT5=
EXTT6=
EXTT7=
EXTT8=
EXTT9=
PLAYORDER=
